<svg version="1.0" xmlns="http://www.w3.org/2000/svg" width="700.000000pt" height="700.000000pt" viewBox="0 0 700.000000 700.000000" preserveAspectRatio="xMidYMid meet">
<metadata>
Created for Somerset Shrimp Shack
</metadata>
<g transform="translate(0.000000,700.000000) scale(0.100000,-0.100000)" fill="#000000" stroke="none">
<path d="M3230 6989 c-19 -4 -57 -17 -85 -29 -85 -36 -158 -109 -194 -194 -29 -68 -29 -184 0 -252 36 -85 109 -158 194 -194 68 -29 184 -29 252 0 85 36 158 109 194 194 29 68 29 184 0 252 -36 85 -109 158 -194 194 -53 23 -124 35 -167 29z"/>
<path d="M2095 5935 c-153 -33 -295 -140 -370 -278 -51 -95 -70 -164 -70 -257 0 -93 19 -162 70 -257 75 -138 217 -245 370 -278 88 -19 172 -19 260 0 153 33 295 140 370 278 51 95 70 164 70 257 0 93 -19 162 -70 257 -75 138 -217 245 -370 278 -88 19 -172 19 -260 0z"/>
<path d="M4905 5935 c-153 -33 -295 -140 -370 -278 -51 -95 -70 -164 -70 -257 0 -93 19 -162 70 -257 75 -138 217 -245 370 -278 88 -19 172 -19 260 0 153 33 295 140 370 278 51 95 70 164 70 257 0 93 -19 162 -70 257 -75 138 -217 245 -370 278 -88 19 -172 19 -260 0z"/>
<path d="M1260 4540 c-142 -30 -277 -125 -355 -250 -78 -125 -95 -285 -47 -430 48 -145 160 -270 300 -334 75 -34 90 -36 192 -36 102 0 117 2 192 36 140 64 252 189 300 334 48 145 31 305 -47 430 -78 125 -213 220 -355 250 -72 15 -108 15 -180 0z"/>
<path d="M3500 4540 c-142 -30 -277 -125 -355 -250 -78 -125 -95 -285 -47 -430 48 -145 160 -270 300 -334 75 -34 90 -36 192 -36 102 0 117 2 192 36 140 64 252 189 300 334 48 145 31 305 -47 430 -78 125 -213 220 -355 250 -72 15 -108 15 -180 0z"/>
<path d="M5740 4540 c-142 -30 -277 -125 -355 -250 -78 -125 -95 -285 -47 -430 48 -145 160 -270 300 -334 75 -34 90 -36 192 -36 102 0 117 2 192 36 140 64 252 189 300 334 48 145 31 305 -47 430 -78 125 -213 220 -355 250 -72 15 -108 15 -180 0z"/>
<path d="M2330 3235 c-198 -42 -383 -180 -485 -361 -102 -181 -102 -403 0 -584 102 -181 287 -319 485 -361 116 -25 234 -25 350 0 198 42 383 180 485 361 102 181 102 403 0 584 -102 181 -287 319 -485 361 -116 25 -234 25 -350 0z"/>
<path d="M4670 3235 c-198 -42 -383 -180 -485 -361 -102 -181 -102 -403 0 -584 102 -181 287 -319 485 -361 116 -25 234 -25 350 0 198 42 383 180 485 361 102 181 102 403 0 584 -102 181 -287 319 -485 361 -116 25 -234 25 -350 0z"/>
<path d="M3500 1750 c-271 -58 -523 -247 -660 -495 -137 -248 -137 -552 0 -800 137 -248 389 -437 660 -495 159 -34 321 -34 480 0 271 58 523 247 660 495 137 248 137 552 0 800 -137 248 -389 437 -660 495 -159 34 -321 34 -480 0z"/>
</g>
</svg>
